<mxfile host="app.diagrams.net" modified="2024-01-15T18:47:32.241Z" agent="Mozilla/5.0 (Windows NT 10.0; Win64; x64) AppleWebKit/537.36 (KHTML, like Gecko) Chrome/120.0.0.0 Safari/537.36 Edg/120.0.0.0" etag="3Lu40THRqdrPhjolLcPt" version="22.1.18" type="github">
  <diagram name="Page-1" id="b33cb84f-bf7a-9ccf-f142-242d16432e5d">
    <mxGraphModel dx="1638" dy="891" grid="1" gridSize="10" guides="1" tooltips="1" connect="1" arrows="1" fold="1" page="1" pageScale="1.5" pageWidth="1169" pageHeight="826" background="none" math="0" shadow="0">
      <root>
        <mxCell id="0" style=";html=1;" />
        <mxCell id="1" style=";html=1;" parent="0" />
        <mxCell id="yGwYDanE8HtUP1_G_n0Y-4" value="" style="shape=image;html=1;verticalAlign=top;verticalLabelPosition=bottom;labelBackgroundColor=#ffffff;imageAspect=0;aspect=fixed;image=https://cdn2.iconfinder.com/data/icons/boxicons-logos/24/bxl-django-128.png" parent="1" vertex="1">
          <mxGeometry x="280" y="120" width="70" height="70" as="geometry" />
        </mxCell>
        <mxCell id="yGwYDanE8HtUP1_G_n0Y-5" value="APPLICAÇÃO" style="rounded=1;whiteSpace=wrap;html=1;fillColor=none;align=center;horizontal=1;verticalAlign=top;" parent="1" vertex="1">
          <mxGeometry x="320" y="60" width="120" height="150" as="geometry" />
        </mxCell>
      </root>
    </mxGraphModel>
  </diagram>
</mxfile>
